<?xml version="1.0" standalone="no"?>
<!DOCTYPE svg PUBLIC "-//W3C//DTD SVG 20010904//EN"
 "http://www.w3.org/TR/2001/REC-SVG-20010904/DTD/svg10.dtd">
<svg version="1.0" xmlns="http://www.w3.org/2000/svg"
 width="1100.000000pt" height="1318.000000pt" viewBox="0 0 1100.000000 1318.000000"
 preserveAspectRatio="xMidYMid meet">
<metadata>
Created by potrace 1.15, written by Peter Selinger 2001-2017
</metadata>
<g transform="translate(0.000000,1318.000000) scale(0.100000,-0.100000)"
fill="#000000" stroke="none">
<path d="M4 6590 c0 -3627 1 -6576 3 -6552 l4 42 490 0 489 0 0 -40 c0 -22 5
-40 10 -40 6 0 10 18 10 40 l0 40 490 0 490 0 0 -40 c0 -22 5 -40 10 -40 6 0
10 18 10 40 l0 40 490 0 490 0 0 -40 c0 -22 5 -40 10 -40 6 0 10 18 10 40 l0
40 490 0 490 0 0 -40 c0 -22 5 -40 10 -40 6 0 10 18 10 40 l0 40 490 0 490 0
1 -42 c1 -24 3 -34 6 -23 2 11 6 30 9 43 l4 22 490 0 489 0 4 -43 4 -42 1 43
2 42 494 0 495 0 4 -42 4 -43 1 43 2 42 494 0 495 0 4 -42 4 -43 1 43 2 42
494 0 495 0 4 -43 4 -42 1 43 2 42 494 0 495 0 4 -42 4 -43 1 43 2 42 494 0
495 0 4 -43 c2 -23 3 2926 3 6553 0 3627 -1 6574 -3 6548 l-4 -48 -494 0 -494
0 -4 48 -3 47 -2 -47 -2 -48 -494 0 -495 0 -4 48 -3 47 -2 -47 -2 -48 -494 0
-495 0 -4 48 -3 47 -2 -48 -2 -47 -492 2 -493 3 -6 45 -6 45 -1 -47 -2 -48
-494 0 -495 0 -4 48 -3 47 -2 -48 -2 -47 -492 2 -493 3 -6 45 -6 45 -1 -47 -2
-48 -490 0 -490 0 0 45 c0 25 -4 45 -10 45 -5 0 -10 -20 -10 -45 l0 -45 -490
0 -490 0 0 45 c0 25 -4 45 -10 45 -5 0 -10 -20 -10 -45 l0 -45 -490 0 -490 0
0 45 c0 25 -4 45 -10 45 -5 0 -10 -20 -10 -45 l0 -45 -490 0 -490 0 0 45 c0
25 -4 45 -10 45 -5 0 -10 -20 -10 -45 l0 -45 -489 0 -490 0 -4 48 c-2 26 -3
-2921 -3 -6548z m988 6480 c2 -5 2 -228 0 -495 l-2 -485 -490 0 -490 0 0 495
0 495 489 0 c317 0 491 -4 493 -10z m998 -485 l0 -495 -490 0 -490 0 0 495 0
495 490 0 490 0 0 -495z m1000 0 l0 -495 -490 0 -490 0 0 495 0 495 490 0 490
0 0 -495z m1000 0 l0 -495 -490 0 -490 0 0 495 0 495 490 0 490 0 0 -495z
m1000 0 l0 -495 -490 0 -490 0 0 495 0 495 490 0 490 0 0 -495z m1000 0 l0
-495 -492 2 -493 3 -3 470 c-1 259 0 480 3 493 l5 22 490 0 490 0 0 -495z
m1000 0 l0 -495 -495 0 -495 0 0 488 c0 269 3 492 7 495 3 4 226 7 495 7 l488
0 0 -495z m1000 0 l0 -495 -492 2 -493 3 -3 480 c-1 264 0 486 3 493 3 9 112
12 495 12 l490 0 0 -495z m1000 0 l0 -495 -495 0 -495 0 0 495 0 495 495 0
495 0 0 -495z m1000 0 l0 -495 -495 0 -495 0 0 495 0 495 495 0 495 0 0 -495z
m1000 0 l0 -495 -495 0 -495 0 0 495 0 495 495 0 495 0 0 -495z m-10000 -1000
l0 -495 -490 0 -490 0 0 495 0 495 490 0 490 0 0 -495z m1000 0 l0 -495 -490
0 -490 0 0 495 0 495 490 0 490 0 0 -495z m1000 0 l0 -495 -490 0 -490 0 0
495 0 495 490 0 490 0 0 -495z m1000 0 l0 -495 -490 0 -490 0 0 495 0 495 490
0 490 0 0 -495z m1000 0 l0 -495 -490 0 -490 0 0 495 0 495 490 0 490 0 0
-495z m1000 0 l0 -495 -492 2 -493 3 -3 480 c-1 264 0 486 3 493 3 9 112 12
495 12 l490 0 0 -495z m1000 0 l0 -495 -495 0 -495 0 0 488 c0 269 3 492 7
495 3 4 226 7 495 7 l488 0 0 -495z m1000 0 l0 -495 -492 2 -493 3 -3 480 c-1
264 0 486 3 493 3 9 112 12 495 12 l490 0 0 -495z m1000 0 l0 -495 -495 0
-495 0 0 495 0 495 495 0 495 0 0 -495z m1000 0 l0 -495 -495 0 -495 0 0 488
c0 269 3 492 7 495 3 4 226 7 495 7 l488 0 0 -495z m1000 0 l0 -495 -495 0
-495 0 0 495 0 495 495 0 495 0 0 -495z m-10000 -1000 l0 -495 -490 0 -490 0
0 495 0 495 490 0 490 0 0 -495z m1000 0 l0 -495 -490 0 -490 0 0 495 0 495
490 0 490 0 0 -495z m1000 0 l0 -495 -490 0 -490 0 0 495 0 495 490 0 490 0 0
-495z m1000 0 l0 -495 -490 0 -490 0 0 495 0 495 490 0 490 0 0 -495z m1000 0
l0 -495 -490 0 -490 0 0 495 0 495 490 0 490 0 0 -495z m1000 0 l0 -495 -492
2 -493 3 -3 470 c-1 259 0 480 3 493 l5 22 490 0 490 0 0 -495z m1000 0 l0
-495 -495 0 -495 0 0 488 c0 269 3 492 7 495 3 4 226 7 495 7 l488 0 0 -495z
m1000 0 l0 -495 -492 2 -493 3 -3 480 c-1 264 0 486 3 493 3 9 112 12 495 12
l490 0 0 -495z m1000 0 l0 -495 -495 0 -495 0 0 495 0 495 495 0 495 0 0 -495z
m1000 0 l0 -495 -495 0 -495 0 0 495 0 495 495 0 495 0 0 -495z m1000 0 l0
-495 -495 0 -495 0 0 495 0 495 495 0 495 0 0 -495z m-10000 -1000 l0 -495
-490 0 -490 0 0 495 0 495 490 0 490 0 0 -495z m1000 0 l0 -495 -490 0 -490 0
0 495 0 495 490 0 490 0 0 -495z m1000 0 l0 -495 -490 0 -490 0 0 495 0 495
490 0 490 0 0 -495z m1000 0 l0 -495 -490 0 -490 0 0 495 0 495 490 0 490 0 0
-495z m1000 0 l0 -495 -490 0 -490 0 0 495 0 495 490 0 490 0 0 -495z m1000 0
l0 -495 -492 2 -493 3 -3 470 c-1 259 0 480 3 493 l5 22 490 0 490 0 0 -495z
m1000 0 l0 -495 -495 0 -495 0 0 495 0 495 495 0 495 0 0 -495z m1000 0 l0
-495 -492 2 -493 3 -3 480 c-1 264 0 486 3 493 3 9 112 12 495 12 l490 0 0
-495z m1000 0 l0 -495 -495 0 -495 0 0 495 0 495 495 0 495 0 0 -495z m1000 0
l0 -495 -495 0 -495 0 0 495 0 495 495 0 495 0 0 -495z m1000 0 l0 -495 -495
0 -495 0 0 495 0 495 495 0 495 0 0 -495z m-10000 -1000 l0 -495 -490 0 -490
0 0 495 0 495 490 0 490 0 0 -495z m1000 0 l0 -495 -490 0 -490 0 0 495 0 495
490 0 490 0 0 -495z m1000 0 l0 -495 -490 0 -490 0 0 495 0 495 490 0 490 0 0
-495z m1000 0 l0 -495 -490 0 -490 0 0 495 0 495 490 0 490 0 0 -495z m1000 0
l0 -495 -490 0 -490 0 0 495 0 495 490 0 490 0 0 -495z m1000 0 l0 -495 -492
2 -493 3 -3 470 c-1 259 0 480 3 493 l5 22 490 0 490 0 0 -495z m1000 0 l0
-495 -495 0 -495 0 0 488 c0 269 3 492 7 495 3 4 226 7 495 7 l488 0 0 -495z
m1000 0 l0 -495 -492 2 -493 3 -3 493 -2 492 495 0 495 0 0 -495z m1000 0 l0
-495 -495 0 -495 0 0 495 0 495 495 0 495 0 0 -495z m1000 0 l0 -495 -495 0
-495 0 0 495 0 495 495 0 495 0 0 -495z m1000 0 l0 -495 -495 0 -495 0 0 495
0 495 495 0 495 0 0 -495z m-10000 -1000 l0 -495 -490 0 -490 0 0 495 0 495
490 0 490 0 0 -495z m1000 0 l0 -495 -490 0 -490 0 0 495 0 495 490 0 490 0 0
-495z m1000 0 l0 -495 -490 0 -490 0 0 495 0 495 490 0 490 0 0 -495z m1000 0
l0 -495 -490 0 -490 0 0 495 0 495 490 0 490 0 0 -495z m1000 0 l0 -495 -490
0 -490 0 0 495 0 495 490 0 490 0 0 -495z m1000 0 l0 -495 -492 2 -493 3 -3
480 c-1 264 0 486 3 493 3 9 112 12 495 12 l490 0 0 -495z m1000 0 l0 -495
-495 0 -495 0 0 495 0 495 495 0 495 0 0 -495z m1000 0 l0 -495 -492 2 -493 3
-3 480 c-1 264 0 486 3 493 3 9 112 12 495 12 l490 0 0 -495z m1000 0 l0 -495
-495 0 -495 0 0 495 0 495 495 0 495 0 0 -495z m1000 0 l0 -495 -495 0 -495 0
0 495 0 495 495 0 495 0 0 -495z m1000 0 l0 -495 -495 0 -495 0 0 495 0 495
495 0 495 0 0 -495z m-10000 -1000 l0 -495 -490 0 -490 0 0 495 0 495 490 0
490 0 0 -495z m1000 0 l0 -495 -490 0 -490 0 0 495 0 495 490 0 490 0 0 -495z
m1000 0 l0 -495 -490 0 -490 0 0 495 0 495 490 0 490 0 0 -495z m1000 0 l0
-495 -490 0 -490 0 0 495 0 495 490 0 490 0 0 -495z m1000 0 l0 -495 -490 0
-490 0 -2 485 c-2 267 -1 490 0 495 2 6 176 10 493 10 l489 0 0 -495z m1000 0
l0 -495 -492 2 -493 3 -3 470 c-1 259 0 480 3 493 l5 22 490 0 490 0 0 -495z
m1000 0 l0 -495 -492 2 -493 3 -3 493 -2 492 495 0 495 0 0 -495z m1000 0 l0
-495 -492 2 -493 3 -3 493 -2 492 495 0 495 0 0 -495z m1000 0 l0 -495 -495 0
-495 0 0 495 0 495 495 0 495 0 0 -495z m1000 0 l0 -495 -495 0 -495 0 0 495
0 495 495 0 495 0 0 -495z m1000 0 l0 -495 -495 0 -495 0 0 495 0 495 495 0
495 0 0 -495z m-10000 -1000 l0 -495 -490 0 -490 0 0 495 0 495 490 0 490 0 0
-495z m1000 0 l0 -495 -490 0 -490 0 0 495 0 495 490 0 490 0 0 -495z m1000 0
l0 -495 -490 0 -490 0 0 495 0 495 490 0 490 0 0 -495z m1000 0 l0 -495 -490
0 -490 0 0 495 0 495 490 0 490 0 0 -495z m1000 0 l0 -495 -490 0 -490 0 0
495 0 495 490 0 490 0 0 -495z m1000 0 l0 -495 -492 2 -493 3 -3 470 c-1 259
0 480 3 493 l5 22 490 0 490 0 0 -495z m1000 0 l0 -495 -492 2 -493 3 -3 493
-2 492 495 0 495 0 0 -495z m1000 0 l0 -495 -492 2 -493 3 -3 493 -2 492 495
0 495 0 0 -495z m1000 0 l0 -495 -495 0 -495 0 0 495 0 495 495 0 495 0 0
-495z m1000 0 l0 -495 -495 0 -495 0 0 495 0 495 495 0 495 0 0 -495z m1000 0
l0 -495 -495 0 -495 0 0 495 0 495 495 0 495 0 0 -495z m-9998 -996 c2 -270 1
-493 -1 -495 -2 -2 -224 -4 -493 -4 l-488 0 0 495 0 495 490 0 490 0 2 -491z
m998 -4 l0 -495 -490 0 -490 0 0 495 0 495 490 0 490 0 0 -495z m1000 0 l0
-495 -490 0 -490 0 0 495 0 495 490 0 490 0 0 -495z m1000 0 l0 -495 -490 0
-490 0 0 495 0 495 490 0 490 0 0 -495z m1000 0 l0 -495 -490 0 -490 0 -2 485
c-2 267 -1 490 0 495 2 6 176 10 493 10 l489 0 0 -495z m1000 0 l0 -495 -492
2 -493 3 -3 470 c-2 259 0 480 3 493 l5 22 490 0 490 0 0 -495z m1000 0 l0
-495 -492 2 -493 3 -3 493 -2 492 495 0 495 0 0 -495z m1000 0 l0 -495 -492 2
-493 3 -3 493 -2 492 495 0 495 0 0 -495z m1000 0 l0 -495 -495 0 -495 0 0
495 0 495 495 0 495 0 0 -495z m1000 0 l0 -495 -492 2 -493 3 -3 493 -2 492
495 0 495 0 0 -495z m1000 0 l0 -495 -495 0 -495 0 0 495 0 495 495 0 495 0 0
-495z m-10000 -1000 l0 -495 -490 0 -490 0 0 495 0 495 490 0 490 0 0 -495z
m1000 0 l0 -495 -490 0 -490 0 0 495 0 495 490 0 490 0 0 -495z m1000 0 l0
-495 -490 0 -490 0 0 495 0 495 490 0 490 0 0 -495z m1000 0 l0 -495 -490 0
-490 0 0 495 0 495 490 0 490 0 0 -495z m1000 0 l0 -495 -490 0 -490 0 0 495
0 495 490 0 490 0 0 -495z m1000 0 l0 -495 -492 2 -493 3 -3 470 c-1 259 0
480 3 493 l5 22 490 0 490 0 0 -495z m1000 0 l0 -495 -492 2 -493 3 -3 493 -2
492 495 0 495 0 0 -495z m1000 0 l0 -495 -492 2 -493 3 -3 493 -2 492 495 0
495 0 0 -495z m1000 0 l0 -495 -495 0 -495 0 0 495 0 495 495 0 495 0 0 -495z
m1000 0 l0 -495 -492 2 -493 3 -3 493 -2 492 495 0 495 0 0 -495z m1000 0 l0
-495 -495 0 -495 0 0 495 0 495 495 0 495 0 0 -495z m-10000 -1000 l0 -495
-490 0 -490 0 0 495 0 495 490 0 490 0 0 -495z m1000 0 l0 -495 -490 0 -490 0
0 495 0 495 490 0 490 0 0 -495z m1000 0 l0 -495 -490 0 -490 0 0 495 0 495
490 0 490 0 0 -495z m1000 0 l0 -495 -490 0 -490 0 0 495 0 495 490 0 490 0 0
-495z m1000 0 l0 -495 -490 0 -490 0 0 495 0 495 490 0 490 0 0 -495z m1000 0
l0 -495 -492 2 -493 3 -3 470 c-2 259 0 480 3 493 l5 22 490 0 490 0 0 -495z
m1000 0 l0 -495 -492 2 -493 3 -3 493 -2 492 495 0 495 0 0 -495z m1000 0 l0
-495 -492 2 -493 3 -3 493 -2 492 495 0 495 0 0 -495z m1000 0 l0 -495 -495 0
-495 0 0 495 0 495 495 0 495 0 0 -495z m1000 0 l0 -495 -492 2 -493 3 -3 493
-2 492 495 0 495 0 0 -495z m1000 0 l0 -495 -495 0 -495 0 0 495 0 495 495 0
495 0 0 -495z m-10000 -1000 l0 -495 -490 0 -490 0 0 495 0 495 490 0 490 0 0
-495z m1000 0 l0 -495 -490 0 -490 0 0 495 0 495 490 0 490 0 0 -495z m1000 0
l0 -495 -490 0 -490 0 0 495 0 495 490 0 490 0 0 -495z m1000 0 l0 -495 -490
0 -490 0 0 495 0 495 490 0 490 0 0 -495z m1000 0 l0 -495 -490 0 -490 0 0
495 0 495 490 0 490 0 0 -495z m1000 0 l0 -495 -492 2 -493 3 -3 470 c-1 259
0 480 3 493 l5 22 490 0 490 0 0 -495z m1000 0 l0 -495 -492 2 -493 3 -3 493
-2 492 495 0 495 0 0 -495z m1000 0 l0 -495 -492 2 -493 3 -3 493 -2 492 495
0 495 0 0 -495z m1000 0 l0 -495 -495 0 -495 0 0 495 0 495 495 0 495 0 0
-495z m1000 0 l0 -495 -492 2 -493 3 -3 493 -2 492 495 0 495 0 0 -495z m1000
0 l0 -495 -495 0 -495 0 0 495 0 495 495 0 495 0 0 -495z m-10000 -1000 l0
-495 -490 0 -490 0 0 495 0 495 490 0 490 0 0 -495z m1000 0 l0 -495 -490 0
-490 0 0 495 0 495 490 0 490 0 0 -495z m1000 0 l0 -495 -490 0 -490 0 0 495
0 495 490 0 490 0 0 -495z m1000 0 l0 -495 -490 0 -490 0 0 495 0 495 490 0
490 0 0 -495z m1000 0 l0 -495 -490 0 -490 0 0 495 0 495 490 0 490 0 0 -495z
m1000 0 l0 -495 -492 2 -493 3 -3 470 c-1 259 0 480 3 493 l5 22 490 0 490 0
0 -495z m1000 0 l0 -495 -492 2 -493 3 -3 493 -2 492 495 0 495 0 0 -495z
m1000 0 l0 -495 -492 2 -493 3 -3 493 -2 492 495 0 495 0 0 -495z m1000 0 l0
-495 -495 0 -495 0 0 495 0 495 495 0 495 0 0 -495z m1000 0 l0 -495 -492 2
-493 3 -3 493 -2 492 495 0 495 0 0 -495z m1000 0 l0 -495 -495 0 -495 0 0
495 0 495 495 0 495 0 0 -495z"/>
</g>
</svg>
